<?xml version="1.0" encoding="us-ascii" standalone="no"?><svg xmlns="http://www.w3.org/2000/svg" xmlns:xlink="http://www.w3.org/1999/xlink" contentStyleType="text/css" height="791px" preserveAspectRatio="none" style="width:252px;height:791px;background:#FFFFFF;" version="1.1" viewBox="0 0 252 791" width="252px" zoomAndPan="magnify"><defs/><g><!--class App--><g id="elem_App"><rect codeLine="6" fill="#F1F1F1" height="66.6211" id="App" rx="2.5" ry="2.5" style="stroke:#181818;stroke-width:0.5;" width="173" x="39.5" y="7"/><ellipse cx="109.25" cy="23" fill="#ADD1B2" rx="11" ry="11" style="stroke:#181818;stroke-width:1.0;"/><path d="M112.0156,18.875 Q112.1719,18.6563 112.3594,18.5469 Q112.5469,18.4375 112.7656,18.4375 Q113.1406,18.4375 113.375,18.7031 Q113.6094,18.9531 113.6094,19.5625 L113.6094,21.0156 Q113.6094,21.625 113.375,21.8906 Q113.1406,22.1563 112.7656,22.1563 Q112.4219,22.1563 112.2188,21.9531 Q112.0156,21.7656 111.9063,21.25 Q111.8594,20.8906 111.6719,20.7031 Q111.3438,20.3281 110.7344,20.1094 Q110.125,19.8906 109.5,19.8906 Q108.7344,19.8906 108.0938,20.2188 Q107.4688,20.5469 106.9688,21.2969 Q106.4844,22.0469 106.4844,23.0781 L106.4844,24.1719 Q106.4844,25.4063 107.375,26.2344 Q108.2656,27.0469 109.8594,27.0469 Q110.7969,27.0469 111.4531,26.7969 Q111.8438,26.6406 112.2656,26.2031 Q112.5313,25.9375 112.6719,25.8594 Q112.8281,25.7813 113.0313,25.7813 Q113.3594,25.7813 113.6094,26.0469 Q113.875,26.2969 113.875,26.6406 Q113.875,26.9844 113.5313,27.3906 Q113.0313,27.9688 112.2344,28.2969 Q111.1563,28.75 109.8594,28.75 Q108.3438,28.75 107.1406,28.125 Q106.1563,27.625 105.4688,26.5625 Q104.7813,25.4844 104.7813,24.2031 L104.7813,23.0469 Q104.7813,21.7188 105.3906,20.5781 Q106.0156,19.4219 107.1094,18.8125 Q108.2031,18.1875 109.4375,18.1875 Q110.1719,18.1875 110.8125,18.3594 Q111.4688,18.5156 112.0156,18.875 Z " fill="#000000"/><text fill="#000000" font-family="sans-serif" font-size="14" lengthAdjust="spacing" textLength="25" x="129.75" y="28.7969">App</text><line style="stroke:#181818;stroke-width:0.5;" x1="40.5" x2="211.5" y1="39" y2="39"/><line style="stroke:#181818;stroke-width:0.5;" x1="40.5" x2="211.5" y1="47" y2="47"/><ellipse cx="50.5" cy="61.8105" fill="#84BE84" rx="3" ry="3" style="stroke:#038048;stroke-width:1.0;"/><text fill="#000000" font-family="sans-serif" font-size="14" lengthAdjust="spacing" text-decoration="underline" textLength="147" x="59.5" y="66.1074">main(args:String[]):void</text></g><!--class Dni--><g id="elem_Dni"><rect codeLine="10" fill="#F1F1F1" height="308.6953" id="Dni" rx="2.5" ry="2.5" style="stroke:#181818;stroke-width:0.5;" width="238" x="7" y="195"/><ellipse cx="111.25" cy="211" fill="#ADD1B2" rx="11" ry="11" style="stroke:#181818;stroke-width:1.0;"/><path d="M114.0156,206.875 Q114.1719,206.6563 114.3594,206.5469 Q114.5469,206.4375 114.7656,206.4375 Q115.1406,206.4375 115.375,206.7031 Q115.6094,206.9531 115.6094,207.5625 L115.6094,209.0156 Q115.6094,209.625 115.375,209.8906 Q115.1406,210.1563 114.7656,210.1563 Q114.4219,210.1563 114.2188,209.9531 Q114.0156,209.7656 113.9063,209.25 Q113.8594,208.8906 113.6719,208.7031 Q113.3438,208.3281 112.7344,208.1094 Q112.125,207.8906 111.5,207.8906 Q110.7344,207.8906 110.0938,208.2188 Q109.4688,208.5469 108.9688,209.2969 Q108.4844,210.0469 108.4844,211.0781 L108.4844,212.1719 Q108.4844,213.4063 109.375,214.2344 Q110.2656,215.0469 111.8594,215.0469 Q112.7969,215.0469 113.4531,214.7969 Q113.8438,214.6406 114.2656,214.2031 Q114.5313,213.9375 114.6719,213.8594 Q114.8281,213.7813 115.0313,213.7813 Q115.3594,213.7813 115.6094,214.0469 Q115.875,214.2969 115.875,214.6406 Q115.875,214.9844 115.5313,215.3906 Q115.0313,215.9688 114.2344,216.2969 Q113.1563,216.75 111.8594,216.75 Q110.3438,216.75 109.1406,216.125 Q108.1563,215.625 107.4688,214.5625 Q106.7813,213.4844 106.7813,212.2031 L106.7813,211.0469 Q106.7813,209.7188 107.3906,208.5781 Q108.0156,207.4219 109.1094,206.8125 Q110.2031,206.1875 111.4375,206.1875 Q112.1719,206.1875 112.8125,206.3594 Q113.4688,206.5156 114.0156,206.875 Z " fill="#000000"/><text fill="#000000" font-family="sans-serif" font-size="14" lengthAdjust="spacing" textLength="21" x="131.75" y="216.7969">Dni</text><line style="stroke:#181818;stroke-width:0.5;" x1="8" x2="244" y1="227" y2="227"/><rect fill="none" height="6" style="stroke:#C82930;stroke-width:1.0;" width="6" x="15" y="238.8105"/><text fill="#000000" font-family="sans-serif" font-size="14" lengthAdjust="spacing" textLength="60" x="27" y="246.1074">dni:String</text><rect fill="none" height="6" style="stroke:#C82930;stroke-width:1.0;" width="6" x="15" y="257.4316"/><text fill="#000000" font-family="sans-serif" font-size="14" lengthAdjust="spacing" text-decoration="underline" textLength="140" x="27" y="264.7285">tabla:TablaAsignacion</text><line style="stroke:#181818;stroke-width:1.0;" x1="8" x2="244" y1="272.2422" y2="272.2422"/><ellipse cx="18" cy="287.0527" fill="#84BE84" rx="3" ry="3" style="stroke:#038048;stroke-width:1.0;"/><text fill="#000000" font-family="sans-serif" font-size="14" lengthAdjust="spacing" textLength="31" x="27" y="291.3496">Dni()</text><ellipse cx="18" cy="305.6738" fill="#84BE84" rx="3" ry="3" style="stroke:#038048;stroke-width:1.0;"/><text fill="#000000" font-family="sans-serif" font-size="14" lengthAdjust="spacing" textLength="92" x="27" y="309.9707">getDni():String</text><ellipse cx="18" cy="324.2949" fill="#84BE84" rx="3" ry="3" style="stroke:#038048;stroke-width:1.0;"/><text fill="#000000" font-family="sans-serif" font-size="14" lengthAdjust="spacing" textLength="117" x="27" y="328.5918">setDni(String):void</text><ellipse cx="18" cy="342.916" fill="#84BE84" rx="3" ry="3" style="stroke:#038048;stroke-width:1.0;"/><text fill="#000000" font-family="sans-serif" font-size="14" lengthAdjust="spacing" textLength="100" x="27" y="347.2129">toString():String</text><ellipse cx="18" cy="361.5371" fill="#84BE84" rx="3" ry="3" style="stroke:#038048;stroke-width:1.0;"/><text fill="#000000" font-family="sans-serif" font-size="14" lengthAdjust="spacing" textLength="182" x="27" y="365.834">isDniNumero(String):boolean</text><ellipse cx="18" cy="380.1582" fill="#84BE84" rx="3" ry="3" style="stroke:#038048;stroke-width:1.0;"/><text fill="#000000" font-family="sans-serif" font-size="14" lengthAdjust="spacing" textLength="209" x="27" y="384.4551">extraerParteNumericaDni():String</text><ellipse cx="18" cy="398.7793" fill="#84BE84" rx="3" ry="3" style="stroke:#038048;stroke-width:1.0;"/><text fill="#000000" font-family="sans-serif" font-size="14" lengthAdjust="spacing" textLength="212" x="27" y="403.0762">extraerParteAlfabeticaDni():String</text><ellipse cx="18" cy="417.4004" fill="#84BE84" rx="3" ry="3" style="stroke:#038048;stroke-width:1.0;"/><text fill="#000000" font-family="sans-serif" font-size="14" lengthAdjust="spacing" textLength="133" x="27" y="421.6973">obtenerLetra():String</text><ellipse cx="18" cy="436.0215" fill="#84BE84" rx="3" ry="3" style="stroke:#038048;stroke-width:1.0;"/><text fill="#000000" font-family="sans-serif" font-size="14" lengthAdjust="spacing" textLength="135" x="27" y="440.3184">checkLetra():boolean</text><ellipse cx="18" cy="454.6426" fill="#84BE84" rx="3" ry="3" style="stroke:#038048;stroke-width:1.0;"/><text fill="#000000" font-family="sans-serif" font-size="14" lengthAdjust="spacing" textLength="123" x="27" y="458.9395">checkDni():boolean</text><ellipse cx="18" cy="473.2637" fill="#84BE84" rx="3" ry="3" style="stroke:#038048;stroke-width:1.0;"/><text fill="#000000" font-family="sans-serif" font-size="14" lengthAdjust="spacing" textLength="172" x="27" y="477.5605">checkNumeroDni():boolean</text><rect fill="#F24D5C" height="6" style="stroke:#C82930;stroke-width:1.0;" width="6" x="15" y="488.8848"/><text fill="#000000" font-family="sans-serif" font-size="14" lengthAdjust="spacing" textLength="206" x="27" y="496.1816">checkLongitudNumDni():boolean</text></g><!--class TablaAsignacion--><g id="elem_TablaAsignacion"><rect codeLine="28" fill="#F1F1F1" height="159.7266" id="TablaAsignacion" rx="2.5" ry="2.5" style="stroke:#181818;stroke-width:0.5;" width="206" x="23" y="625"/><ellipse cx="69.25" cy="641" fill="#ADD1B2" rx="11" ry="11" style="stroke:#181818;stroke-width:1.0;"/><path d="M72.0156,636.875 Q72.1719,636.6563 72.3594,636.5469 Q72.5469,636.4375 72.7656,636.4375 Q73.1406,636.4375 73.375,636.7031 Q73.6094,636.9531 73.6094,637.5625 L73.6094,639.0156 Q73.6094,639.625 73.375,639.8906 Q73.1406,640.1563 72.7656,640.1563 Q72.4219,640.1563 72.2188,639.9531 Q72.0156,639.7656 71.9063,639.25 Q71.8594,638.8906 71.6719,638.7031 Q71.3438,638.3281 70.7344,638.1094 Q70.125,637.8906 69.5,637.8906 Q68.7344,637.8906 68.0938,638.2188 Q67.4688,638.5469 66.9688,639.2969 Q66.4844,640.0469 66.4844,641.0781 L66.4844,642.1719 Q66.4844,643.4063 67.375,644.2344 Q68.2656,645.0469 69.8594,645.0469 Q70.7969,645.0469 71.4531,644.7969 Q71.8438,644.6406 72.2656,644.2031 Q72.5313,643.9375 72.6719,643.8594 Q72.8281,643.7813 73.0313,643.7813 Q73.3594,643.7813 73.6094,644.0469 Q73.875,644.2969 73.875,644.6406 Q73.875,644.9844 73.5313,645.3906 Q73.0313,645.9688 72.2344,646.2969 Q71.1563,646.75 69.8594,646.75 Q68.3438,646.75 67.1406,646.125 Q66.1563,645.625 65.4688,644.5625 Q64.7813,643.4844 64.7813,642.2031 L64.7813,641.0469 Q64.7813,639.7188 65.3906,638.5781 Q66.0156,637.4219 67.1094,636.8125 Q68.2031,636.1875 69.4375,636.1875 Q70.1719,636.1875 70.8125,636.3594 Q71.4688,636.5156 72.0156,636.875 Z " fill="#000000"/><text fill="#000000" font-family="sans-serif" font-size="14" lengthAdjust="spacing" textLength="105" x="89.75" y="646.7969">TablaAsignacion</text><line style="stroke:#181818;stroke-width:0.5;" x1="24" x2="228" y1="657" y2="657"/><rect fill="none" height="6" style="stroke:#C82930;stroke-width:1.0;" width="6" x="31" y="668.8105"/><text fill="#000000" font-family="sans-serif" font-size="14" lengthAdjust="spacing" textLength="75" x="43" y="676.1074">char[] letras</text><line style="stroke:#181818;stroke-width:1.0;" x1="24" x2="228" y1="683.6211" y2="683.6211"/><ellipse cx="34" cy="698.4316" fill="#84BE84" rx="3" ry="3" style="stroke:#038048;stroke-width:1.0;"/><text fill="#000000" font-family="sans-serif" font-size="14" lengthAdjust="spacing" textLength="115" x="43" y="702.7285">TablaAsignacion()</text><ellipse cx="34" cy="717.0527" fill="#84BE84" rx="3" ry="3" style="stroke:#038048;stroke-width:1.0;"/><text fill="#000000" font-family="sans-serif" font-size="14" lengthAdjust="spacing" textLength="110" x="43" y="721.3496">getLetra(int):char</text><ellipse cx="34" cy="735.6738" fill="#84BE84" rx="3" ry="3" style="stroke:#038048;stroke-width:1.0;"/><text fill="#000000" font-family="sans-serif" font-size="14" lengthAdjust="spacing" textLength="180" x="43" y="739.9707">letraPermitida(char):boolean</text><ellipse cx="34" cy="754.2949" fill="#84BE84" rx="3" ry="3" style="stroke:#038048;stroke-width:1.0;"/><text fill="#000000" font-family="sans-serif" font-size="14" lengthAdjust="spacing" textLength="161" x="43" y="758.5918">calcularLetra(String):char</text><text fill="#000000" font-family="sans-serif" font-size="14" lengthAdjust="spacing" textLength="4" x="43" y="777.2129">&#160;</text></g><!--link App to Dni--><g id="link_App_Dni"><path codeLine="3" d="M126,74.06 C126,103.54 126,143.21 126,188.9 " fill="none" id="App-to-Dni" style="stroke:#181818;stroke-width:1.0;"/><polygon fill="#181818" points="126,194.9,130,185.9,126,189.9,122,185.9,126,194.9" style="stroke:#181818;stroke-width:1.0;"/></g><!--link Dni to TablaAsignacion--><g id="link_Dni_TablaAsignacion"><path codeLine="4" d="M126,504.01 C126,545.75 126,583.24 126,618.97 " fill="none" id="Dni-to-TablaAsignacion" style="stroke:#181818;stroke-width:1.0;"/><polygon fill="#181818" points="126,624.97,130,615.97,126,619.97,122,615.97,126,624.97" style="stroke:#181818;stroke-width:1.0;"/></g><!--SRC=[RP71QiCm38RlVehSrXAyt7CO57OSez3TIW-AewLYZftPoXYKlliSgobjka28fV_JByLwEZ8FiQwgmOBZiRVFnlTLnEyHdK7T4dG1UgKsmr1ehL-ALqSglH9yG6DX4wbpOCWxfOo568i9FgaYFQV8m6JEPG_aLX2wMEyuaElsXtNzuwbLvxaecKgDRXrTA8bd4vwwrSkU6T7vKoQFrLgE7NAERftAA4b9NGR80dl9BNYA2NyVUmp-MjHuRn6aRuc_70335W9ZviZ0OzjRQcC_eK7-b_CDeyFmXWbVIEQ8vciMxaR8YdWzvcNsHrMBdtSTyTWcwXwvBcLnsQUv6CB-KDXfd7YtW0L_imoPdHolwwbSyjbXYw4dfXPMax3y2x1cj72vata7sI5D-GS0]--></g></svg>