<?xml version="1.0" encoding="us-ascii" standalone="no"?><svg xmlns="http://www.w3.org/2000/svg" xmlns:xlink="http://www.w3.org/1999/xlink" contentStyleType="text/css" height="679px" preserveAspectRatio="none" style="width:252px;height:679px;background:#FFFFFF;" version="1.1" viewBox="0 0 252 679" width="252px" zoomAndPan="magnify"><defs/><g><!--class App--><g id="elem_App"><rect codeLine="6" fill="#F1F1F1" height="66.6211" id="App" rx="2.5" ry="2.5" style="stroke:#181818;stroke-width:0.5;" width="173" x="39.5" y="7"/><ellipse cx="109.25" cy="23" fill="#ADD1B2" rx="11" ry="11" style="stroke:#181818;stroke-width:1.0;"/><path d="M112.0156,18.875 Q112.1719,18.6563 112.3594,18.5469 Q112.5469,18.4375 112.7656,18.4375 Q113.1406,18.4375 113.375,18.7031 Q113.6094,18.9531 113.6094,19.5625 L113.6094,21.0156 Q113.6094,21.625 113.375,21.8906 Q113.1406,22.1563 112.7656,22.1563 Q112.4219,22.1563 112.2188,21.9531 Q112.0156,21.7656 111.9063,21.25 Q111.8594,20.8906 111.6719,20.7031 Q111.3438,20.3281 110.7344,20.1094 Q110.125,19.8906 109.5,19.8906 Q108.7344,19.8906 108.0938,20.2188 Q107.4688,20.5469 106.9688,21.2969 Q106.4844,22.0469 106.4844,23.0781 L106.4844,24.1719 Q106.4844,25.4063 107.375,26.2344 Q108.2656,27.0469 109.8594,27.0469 Q110.7969,27.0469 111.4531,26.7969 Q111.8438,26.6406 112.2656,26.2031 Q112.5313,25.9375 112.6719,25.8594 Q112.8281,25.7813 113.0313,25.7813 Q113.3594,25.7813 113.6094,26.0469 Q113.875,26.2969 113.875,26.6406 Q113.875,26.9844 113.5313,27.3906 Q113.0313,27.9688 112.2344,28.2969 Q111.1563,28.75 109.8594,28.75 Q108.3438,28.75 107.1406,28.125 Q106.1563,27.625 105.4688,26.5625 Q104.7813,25.4844 104.7813,24.2031 L104.7813,23.0469 Q104.7813,21.7188 105.3906,20.5781 Q106.0156,19.4219 107.1094,18.8125 Q108.2031,18.1875 109.4375,18.1875 Q110.1719,18.1875 110.8125,18.3594 Q111.4688,18.5156 112.0156,18.875 Z " fill="#000000"/><text fill="#000000" font-family="sans-serif" font-size="14" lengthAdjust="spacing" textLength="25" x="129.75" y="28.7969">App</text><line style="stroke:#181818;stroke-width:0.5;" x1="40.5" x2="211.5" y1="39" y2="39"/><line style="stroke:#181818;stroke-width:0.5;" x1="40.5" x2="211.5" y1="47" y2="47"/><ellipse cx="50.5" cy="61.8105" fill="#84BE84" rx="3" ry="3" style="stroke:#038048;stroke-width:1.0;"/><text fill="#000000" font-family="sans-serif" font-size="14" lengthAdjust="spacing" text-decoration="underline" textLength="147" x="59.5" y="66.1074">main(args:String[]):void</text></g><!--class DNI--><g id="elem_DNI"><rect codeLine="10" fill="#F1F1F1" height="234.2109" id="DNI" rx="2.5" ry="2.5" style="stroke:#181818;stroke-width:0.5;" width="238" x="7" y="195"/><ellipse cx="110.75" cy="211" fill="#ADD1B2" rx="11" ry="11" style="stroke:#181818;stroke-width:1.0;"/><path d="M113.5156,206.875 Q113.6719,206.6563 113.8594,206.5469 Q114.0469,206.4375 114.2656,206.4375 Q114.6406,206.4375 114.875,206.7031 Q115.1094,206.9531 115.1094,207.5625 L115.1094,209.0156 Q115.1094,209.625 114.875,209.8906 Q114.6406,210.1563 114.2656,210.1563 Q113.9219,210.1563 113.7188,209.9531 Q113.5156,209.7656 113.4063,209.25 Q113.3594,208.8906 113.1719,208.7031 Q112.8438,208.3281 112.2344,208.1094 Q111.625,207.8906 111,207.8906 Q110.2344,207.8906 109.5938,208.2188 Q108.9688,208.5469 108.4688,209.2969 Q107.9844,210.0469 107.9844,211.0781 L107.9844,212.1719 Q107.9844,213.4063 108.875,214.2344 Q109.7656,215.0469 111.3594,215.0469 Q112.2969,215.0469 112.9531,214.7969 Q113.3438,214.6406 113.7656,214.2031 Q114.0313,213.9375 114.1719,213.8594 Q114.3281,213.7813 114.5313,213.7813 Q114.8594,213.7813 115.1094,214.0469 Q115.375,214.2969 115.375,214.6406 Q115.375,214.9844 115.0313,215.3906 Q114.5313,215.9688 113.7344,216.2969 Q112.6563,216.75 111.3594,216.75 Q109.8438,216.75 108.6406,216.125 Q107.6563,215.625 106.9688,214.5625 Q106.2813,213.4844 106.2813,212.2031 L106.2813,211.0469 Q106.2813,209.7188 106.8906,208.5781 Q107.5156,207.4219 108.6094,206.8125 Q109.7031,206.1875 110.9375,206.1875 Q111.6719,206.1875 112.3125,206.3594 Q112.9688,206.5156 113.5156,206.875 Z " fill="#000000"/><text fill="#000000" font-family="sans-serif" font-size="14" lengthAdjust="spacing" textLength="22" x="131.25" y="216.7969">DNI</text><line style="stroke:#181818;stroke-width:0.5;" x1="8" x2="244" y1="227" y2="227"/><rect fill="none" height="6" style="stroke:#C82930;stroke-width:1.0;" width="6" x="15" y="238.8105"/><text fill="#000000" font-family="sans-serif" font-size="14" lengthAdjust="spacing" textLength="60" x="27" y="246.1074">dni:String</text><rect fill="none" height="6" style="stroke:#C82930;stroke-width:1.0;" width="6" x="15" y="257.4316"/><text fill="#000000" font-family="sans-serif" font-size="14" lengthAdjust="spacing" text-decoration="underline" textLength="140" x="27" y="264.7285">tabla:TablaAsignacion</text><line style="stroke:#181818;stroke-width:1.0;" x1="8" x2="244" y1="272.2422" y2="272.2422"/><ellipse cx="18" cy="287.0527" fill="#84BE84" rx="3" ry="3" style="stroke:#038048;stroke-width:1.0;"/><text fill="#000000" font-family="sans-serif" font-size="14" lengthAdjust="spacing" textLength="32" x="27" y="291.3496">DNI()</text><ellipse cx="18" cy="305.6738" fill="#84BE84" rx="3" ry="3" style="stroke:#038048;stroke-width:1.0;"/><text fill="#000000" font-family="sans-serif" font-size="14" lengthAdjust="spacing" textLength="182" x="27" y="309.9707">isDniNumero(String):boolean</text><ellipse cx="18" cy="324.2949" fill="#84BE84" rx="3" ry="3" style="stroke:#038048;stroke-width:1.0;"/><text fill="#000000" font-family="sans-serif" font-size="14" lengthAdjust="spacing" textLength="209" x="27" y="328.5918">extraerParteNumericaDni():String</text><ellipse cx="18" cy="342.916" fill="#84BE84" rx="3" ry="3" style="stroke:#038048;stroke-width:1.0;"/><text fill="#000000" font-family="sans-serif" font-size="14" lengthAdjust="spacing" textLength="172" x="27" y="347.2129">checkNumeroDni():boolean</text><ellipse cx="18" cy="361.5371" fill="#84BE84" rx="3" ry="3" style="stroke:#038048;stroke-width:1.0;"/><text fill="#000000" font-family="sans-serif" font-size="14" lengthAdjust="spacing" textLength="212" x="27" y="365.834">extraerParteAlfabeticaDni():String</text><ellipse cx="18" cy="380.1582" fill="#84BE84" rx="3" ry="3" style="stroke:#038048;stroke-width:1.0;"/><text fill="#000000" font-family="sans-serif" font-size="14" lengthAdjust="spacing" textLength="133" x="27" y="384.4551">obtenerLetra():String</text><ellipse cx="18" cy="398.7793" fill="#84BE84" rx="3" ry="3" style="stroke:#038048;stroke-width:1.0;"/><text fill="#000000" font-family="sans-serif" font-size="14" lengthAdjust="spacing" textLength="135" x="27" y="403.0762">checkLetra():boolean</text><ellipse cx="18" cy="417.4004" fill="#84BE84" rx="3" ry="3" style="stroke:#038048;stroke-width:1.0;"/><text fill="#000000" font-family="sans-serif" font-size="14" lengthAdjust="spacing" textLength="123" x="27" y="421.6973">checkDni():boolean</text></g><!--class TablaAsignacion--><g id="elem_TablaAsignacion"><rect codeLine="24" fill="#F1F1F1" height="122.4844" id="TablaAsignacion" rx="2.5" ry="2.5" style="stroke:#181818;stroke-width:0.5;" width="206" x="23" y="550"/><ellipse cx="69.25" cy="566" fill="#ADD1B2" rx="11" ry="11" style="stroke:#181818;stroke-width:1.0;"/><path d="M72.0156,561.875 Q72.1719,561.6563 72.3594,561.5469 Q72.5469,561.4375 72.7656,561.4375 Q73.1406,561.4375 73.375,561.7031 Q73.6094,561.9531 73.6094,562.5625 L73.6094,564.0156 Q73.6094,564.625 73.375,564.8906 Q73.1406,565.1563 72.7656,565.1563 Q72.4219,565.1563 72.2188,564.9531 Q72.0156,564.7656 71.9063,564.25 Q71.8594,563.8906 71.6719,563.7031 Q71.3438,563.3281 70.7344,563.1094 Q70.125,562.8906 69.5,562.8906 Q68.7344,562.8906 68.0938,563.2188 Q67.4688,563.5469 66.9688,564.2969 Q66.4844,565.0469 66.4844,566.0781 L66.4844,567.1719 Q66.4844,568.4063 67.375,569.2344 Q68.2656,570.0469 69.8594,570.0469 Q70.7969,570.0469 71.4531,569.7969 Q71.8438,569.6406 72.2656,569.2031 Q72.5313,568.9375 72.6719,568.8594 Q72.8281,568.7813 73.0313,568.7813 Q73.3594,568.7813 73.6094,569.0469 Q73.875,569.2969 73.875,569.6406 Q73.875,569.9844 73.5313,570.3906 Q73.0313,570.9688 72.2344,571.2969 Q71.1563,571.75 69.8594,571.75 Q68.3438,571.75 67.1406,571.125 Q66.1563,570.625 65.4688,569.5625 Q64.7813,568.4844 64.7813,567.2031 L64.7813,566.0469 Q64.7813,564.7188 65.3906,563.5781 Q66.0156,562.4219 67.1094,561.8125 Q68.2031,561.1875 69.4375,561.1875 Q70.1719,561.1875 70.8125,561.3594 Q71.4688,561.5156 72.0156,561.875 Z " fill="#000000"/><text fill="#000000" font-family="sans-serif" font-size="14" lengthAdjust="spacing" textLength="105" x="89.75" y="571.7969">TablaAsignacion</text><line style="stroke:#181818;stroke-width:0.5;" x1="24" x2="228" y1="582" y2="582"/><rect fill="none" height="6" style="stroke:#C82930;stroke-width:1.0;" width="6" x="31" y="593.8105"/><text fill="#000000" font-family="sans-serif" font-size="14" lengthAdjust="spacing" textLength="71" x="43" y="601.1074">char[] tabla</text><line style="stroke:#181818;stroke-width:1.0;" x1="24" x2="228" y1="608.6211" y2="608.6211"/><ellipse cx="34" cy="623.4316" fill="#84BE84" rx="3" ry="3" style="stroke:#038048;stroke-width:1.0;"/><text fill="#000000" font-family="sans-serif" font-size="14" lengthAdjust="spacing" textLength="110" x="43" y="627.7285">getLetra(int):char</text><ellipse cx="34" cy="642.0527" fill="#84BE84" rx="3" ry="3" style="stroke:#038048;stroke-width:1.0;"/><text fill="#000000" font-family="sans-serif" font-size="14" lengthAdjust="spacing" textLength="180" x="43" y="646.3496">letraPermitida(char):boolean</text><ellipse cx="34" cy="660.6738" fill="#84BE84" rx="3" ry="3" style="stroke:#038048;stroke-width:1.0;"/><text fill="#000000" font-family="sans-serif" font-size="14" lengthAdjust="spacing" textLength="161" x="43" y="664.9707">calcularLetra(String):char</text></g><!--link App to DNI--><g id="link_App_DNI"><path codeLine="3" d="M126,74.01 C126,104.18 126,144.93 126,188.97 " fill="none" id="App-to-DNI" style="stroke:#181818;stroke-width:1.0;"/><polygon fill="#181818" points="126,194.97,130,185.97,126,189.97,122,185.97,126,194.97" style="stroke:#181818;stroke-width:1.0;"/></g><!--link DNI to TablaAsignacion--><g id="link_DNI_TablaAsignacion"><path codeLine="4" d="M126,429.1 C126,470.43 126,509.27 126,543.97 " fill="none" id="DNI-to-TablaAsignacion" style="stroke:#181818;stroke-width:1.0;"/><polygon fill="#181818" points="126,549.97,130,540.97,126,544.97,122,540.97,126,549.97" style="stroke:#181818;stroke-width:1.0;"/></g><!--SRC=[TP1FQuGm4CNl-HJUgeZrxg4WxALGbeNsjknXZ5DtQFxOP2o5nUzUJRHKsGP2CfatlnVUmvMvzrLPzWeC3rezIgjBZvy36eb5Iz0vq4BKVPyKHV6K78xFOjgnU8D6GUsfCo396Y6a0k-JMNmJoRHkde59Zha6CYcupbUlxCXqvqjMVLbgnRWEJT0uKxI65bMiLmZFRjNUCqYASEGJ8ytYbVp1q77Gw6mQOLdLMAiGuaYEt-m0tGaSOz2HX6aapVvwv_AAyYDYOlDVHgtUeK6-Ix4Deq7tWfFydi7QsC13Pslw6zOkX2KuUGLtlYGXfqqk7NAq8CDPDSlYkveVJ-WqCRMGpetz9q39GS7ozJN8G1Z53m00]--></g></svg>